<svg xmlns="http://www.w3.org/2000/svg" viewBox="0 0 800 800"><path d="M1.48,9.55A15.64,15.64,0,0,0-3.1-1.92l-67-67a15.41,15.41,0,0,0-11.47-4.57,15.64,15.64,0,0,0-11.2,5.18l-82.81,92.11A15.63,15.63,0,0,0-177,42.87l-233.7,233.7c-23-14.32-48.13-22.7-73.39-24.2-39.21-2.36-76.4,12-104.71,40.28A137.59,137.59,0,0,0-622,346.83c-35.2,1.28-79.55,10.35-111.69,42.49-67.65,67.65-61.8,183.57,13,258.4,39.89,39.9,91.46,60.19,141.17,60.19,43.53,0,85.65-15.57,117.23-47.15,32.15-32.14,41.21-76.49,42.49-111.7a137.35,137.35,0,0,0,54.17-33.22c28.32-28.31,42.62-65.5,40.29-104.72-1.5-25.25-9.88-50.38-24.2-73.38l233.55-233.56a15.56,15.56,0,0,0,9.7,3.38,15.58,15.58,0,0,0,10.44-4L-3.7,20.75A15.62,15.62,0,0,0,1.48,9.55Zm-719.88,520a15.63,15.63,0,0,1,19.19,11c1,3.51,2.08,7,3.36,10.4a127.67,127.67,0,0,0,29.39,45.42c42.83,42.82,107.28,48.76,147.54,15,2-1.68,3.95-3.42,5.83-5.29a15.63,15.63,0,0,1,22.1,0,15.63,15.63,0,0,1,0,22.1c-24.24,24.23-56.53,36.18-89.89,36.18-38,0-77.27-15.46-107.68-45.86a157.54,157.54,0,0,1-40.81-69.72A15.63,15.63,0,0,1-718.4,529.52Zm-12.15-51.28a123.47,123.47,0,0,1,32.31-57.39,15.63,15.63,0,0,1,22.1,0,15.63,15.63,0,0,1,0,22.1,90.92,90.92,0,0,0-24.09,42.87,15.63,15.63,0,0,1-15.14,11.84,15.59,15.59,0,0,1-3.81-.47A15.63,15.63,0,0,1-730.55,478.24Zm200,40.36a61.1,61.1,0,0,1-61-61,61.09,61.09,0,0,1,61-61,15.62,15.62,0,0,1,15.63,15.62,15.71,15.71,0,0,1-.24,2.68,15.63,15.63,0,0,1-15.39,12.95,29.8,29.8,0,0,0-29.76,29.77,29.79,29.79,0,0,0,29.76,29.76,29.8,29.8,0,0,0,29.77-29.76,15.62,15.62,0,0,1,12.95-15.38,14.76,14.76,0,0,1,2.68-.25,15.63,15.63,0,0,1,15.63,15.63A61.1,61.1,0,0,1-530.51,518.6Z" transform="translate(780.84 92.09)"/><path d="M-185.22,1.58a15.57,15.57,0,0,0,11.05,4.57,15.57,15.57,0,0,0,11-4.57,15.64,15.64,0,0,0,0-22.11L-170.57-28a15.63,15.63,0,0,0-22.1,0,15.63,15.63,0,0,0,0,22.1Z" transform="translate(780.84 92.09)"/><path d="M-159.17-28.2a15.54,15.54,0,0,0,11,4.58,15.57,15.57,0,0,0,11.05-4.57,15.63,15.63,0,0,0,0-22.1l-7.44-7.45a15.64,15.64,0,0,0-22.11,0,15.63,15.63,0,0,0,0,22.1Z" transform="translate(780.84 92.09)"/><path d="M-133.12-58a15.58,15.58,0,0,0,11.05,4.58A15.58,15.58,0,0,0-111-58a15.63,15.63,0,0,0,0-22.1l-7.44-7.44a15.65,15.65,0,0,0-22.11,0,15.64,15.64,0,0,0,0,22.11Z" transform="translate(780.84 92.09)"/><path d="M14.58,45.53,8.07,39A15.63,15.63,0,0,0-14,39a15.63,15.63,0,0,0,0,22.1l6.51,6.51a15.54,15.54,0,0,0,11,4.58,15.54,15.54,0,0,0,11.05-4.58A15.63,15.63,0,0,0,14.58,45.53Z" transform="translate(780.84 92.09)"/><path d="M-21.7,65.07a15.64,15.64,0,0,0-22.11,0,15.63,15.63,0,0,0,0,22.1l6.51,6.52a15.57,15.57,0,0,0,11.05,4.57,15.54,15.54,0,0,0,11-4.58,15.63,15.63,0,0,0,0-22.1Z" transform="translate(780.84 92.09)"/><path d="M-51.48,91.12a15.63,15.63,0,0,0-22.1,0,15.64,15.64,0,0,0,0,22.11l6.52,6.51A15.57,15.57,0,0,0-56,124.31a15.54,15.54,0,0,0,11-4.58,15.62,15.62,0,0,0,0-22.1Z" transform="translate(780.84 92.09)"/><path d="M782.57,771.85" transform="translate(780.84 92.09)"/></svg>