<svg xmlns="http://www.w3.org/2000/svg" viewBox="0 0 72 74"><g><polygon points="38 64 34 64 34 68 30 68 30 72 26 72 26 74 46 74 46 72 42 72 42 68 38 68 38 64"/><rect class="cls-1" x="16" y="34" width="4" height="4"/><rect class="cls-1" x="52" y="34" width="4" height="4"/><path class="cls-1" d="M60,0V8H52v8H48v6H44V16H38v6H34V16H28v6H24V16H20V8H12V0H6V28H0V52H14v4H6v4H20v4H16v4H30V64h4V54H30V50H42v4H38V64h4v4H56V64H52V60H66V56H58V52H72V28H66V0ZM10,12h4v6h4v4H10ZM28,38H24v4H12V38H8V34h4V30H24v4h4ZM54,18h4V12h4V22H54ZM64,38H60v4H48V38H44V34h4V30H60v4h4Z"/></g></svg>