<?xml version="1.0" standalone="no"?>
<!DOCTYPE svg PUBLIC "-//W3C//DTD SVG 20010904//EN"
 "http://www.w3.org/TR/2001/REC-SVG-20010904/DTD/svg10.dtd">
<svg version="1.0" xmlns="http://www.w3.org/2000/svg"
 width="1000.000000pt" height="1000.000000pt" viewBox="0 0 1000.000000 1000.000000"
 preserveAspectRatio="xMidYMid meet">
<metadata>
Created by potrace 1.14, written by Peter Selinger 2001-2017
</metadata>
<g transform="translate(0.000000,1000.000000) scale(0.100000,-0.100000)"
fill="#000000" stroke="none">
<path d="M2807 8094 c-1 -1 -33 -5 -72 -9 -38 -3 -90 -9 -115 -11 -45 -5 -184
-28 -230 -39 -14 -3 -45 -10 -70 -15 -25 -5 -83 -21 -130 -35 -47 -14 -92 -27
-100 -29 -9 -2 -60 -21 -115 -41 -611 -226 -1135 -714 -1456 -1354 -74 -149
-113 -241 -166 -401 -34 -103 -106 -371 -117 -440 -3 -19 -11 -62 -16 -95 -6
-33 -13 -75 -15 -94 -2 -19 -6 -48 -9 -65 -2 -17 -7 -62 -11 -101 -3 -38 -8
-90 -11 -115 -7 -57 -7 -451 0 -510 3 -25 8 -72 11 -105 10 -98 16 -147 26
-210 74 -479 241 -930 478 -1287 157 -238 385 -494 581 -651 400 -322 906
-524 1440 -575 156 -14 634 -7 765 13 17 2 48 6 70 9 369 48 715 163 1010 336
133 78 312 237 410 365 80 103 165 274 194 390 7 28 15 59 18 70 10 41 12 232
2 285 -15 80 -67 214 -109 279 -115 175 -306 291 -555 336 -80 14 -315 15
-380 1 -167 -36 -280 -91 -449 -219 -70 -53 -231 -207 -296 -283 -14 -16 -52
-61 -86 -99 -34 -39 -70 -81 -80 -94 -10 -13 -26 -31 -35 -40 -8 -9 -50 -60
-93 -113 -189 -238 -410 -469 -547 -573 -102 -77 -250 -165 -278 -165 -21 0
-227 113 -335 185 -408 268 -766 705 -981 1195 -32 75 -121 320 -130 360 -2 8
-17 67 -34 130 -16 63 -39 163 -50 223 -21 107 -26 137 -37 232 -3 28 -7 61
-9 74 -22 137 -22 647 0 759 2 10 6 48 9 84 4 37 9 77 11 90 3 13 8 43 11 68
3 25 8 53 10 62 3 10 8 30 10 45 88 495 340 1046 644 1408 309 368 706 592
1175 660 22 4 51 8 65 11 111 18 470 25 625 11 398 -35 761 -170 1035 -385 82
-65 218 -211 274 -295 100 -151 171 -338 191 -507 10 -82 11 -85 45 -84 17 0
33 4 37 7 9 9 10 828 1 848 -5 11 -17 14 -42 11 -29 -3 -36 -9 -41 -32 -9 -39
-39 -64 -68 -56 -14 3 -46 21 -73 41 -301 214 -512 325 -788 415 -164 53 -322
88 -476 105 -30 4 -68 9 -85 12 -29 5 -453 12 -458 7z m1728 -4189 c226 -45
402 -168 493 -343 119 -229 108 -468 -34 -731 -137 -252 -352 -427 -664 -540
-80 -29 -253 -73 -330 -85 -19 -3 -44 -7 -55 -10 -11 -2 -49 -7 -85 -11 -36
-4 -76 -10 -90 -12 -69 -12 -552 -10 -640 2 -52 7 -117 16 -144 20 -122 16
-340 70 -486 121 -58 20 -108 39 -113 43 -4 4 25 27 64 50 40 24 77 47 83 52
6 5 47 37 91 71 145 115 301 282 585 628 147 178 173 209 270 314 139 151 203
206 339 296 172 116 319 159 521 155 58 -1 145 -10 195 -20z"/>
<path d="M5692 8020 l3 -42 69 -4 c160 -9 235 -65 267 -199 9 -38 12 -674 13
-2755 1 -1488 -2 -2730 -7 -2760 -10 -67 -40 -136 -74 -172 -37 -38 -123 -64
-235 -70 -37 -2 -38 -3 -38 -40 l0 -38 595 0 595 0 0 35 c0 40 -2 42 -87 49
-76 6 -128 27 -171 69 -53 50 -71 92 -87 202 -6 41 -9 1644 -3 1650 1 2 266 5
588 8 322 2 596 7 610 10 14 3 52 8 85 11 543 57 1093 307 1444 656 309 306
480 631 557 1058 33 177 28 491 -9 692 -122 650 -618 1217 -1294 1480 -43 17
-87 35 -98 40 -22 10 -179 57 -235 70 -97 23 -142 33 -165 36 -11 2 -47 8 -80
14 -33 6 -85 13 -115 16 -30 3 -66 8 -80 12 -14 3 -481 7 -1038 9 l-1013 4 3
-41z m1638 -54 c19 -3 58 -8 85 -11 95 -11 190 -27 275 -47 47 -11 96 -22 109
-24 13 -3 67 -19 120 -36 581 -185 1031 -552 1270 -1035 129 -261 185 -506
185 -813 -1 -291 -61 -553 -186 -805 -46 -93 -154 -264 -195 -310 -10 -11 -34
-41 -54 -65 -135 -168 -370 -356 -599 -478 -237 -127 -560 -234 -810 -267 -25
-3 -54 -8 -65 -9 -11 -2 -49 -7 -85 -11 -36 -4 -78 -9 -95 -11 -16 -3 -193 -7
-392 -9 l-363 -5 0 43 c-4 383 0 3889 4 3896 6 10 726 7 796 -3z"/>
</g>
</svg>
